<?xml version="1.0" encoding="UTF-8" standalone="no"?>
<svg
   xmlns:dc="http://purl.org/dc/elements/1.1/"
   xmlns:cc="http://creativecommons.org/ns#"
   xmlns:rdf="http://www.w3.org/1999/02/22-rdf-syntax-ns#"
   xmlns:svg="http://www.w3.org/2000/svg"
   xmlns="http://www.w3.org/2000/svg"
   xmlns:sodipodi="http://sodipodi.sourceforge.net/DTD/sodipodi-0.dtd"
   xmlns:inkscape="http://www.inkscape.org/namespaces/inkscape"
   width="640"
   height="340"
   version="1.1"
   id="svg3789"
   sodipodi:docname="one.svg"
   inkscape:version="0.92.2 5c3e80d, 2017-08-06">
  <metadata
     id="metadata3795">
    <rdf:RDF>
      <cc:Work
         rdf:about="">
        <dc:format>image/svg+xml</dc:format>
        <dc:type
           rdf:resource="http://purl.org/dc/dcmitype/StillImage" />
      </cc:Work>
    </rdf:RDF>
  </metadata>
  <defs
     id="defs3793" />
  <sodipodi:namedview
     pagecolor="#ffffff"
     bordercolor="#666666"
     borderopacity="1"
     objecttolerance="10"
     gridtolerance="10"
     guidetolerance="10"
     inkscape:pageopacity="0"
     inkscape:pageshadow="2"
     inkscape:window-width="1920"
     inkscape:window-height="1009"
     id="namedview3791"
     showgrid="false"
     inkscape:snap-global="false"
     inkscape:zoom="1.6605505"
     inkscape:cx="307.69516"
     inkscape:cy="208.81778"
     inkscape:window-x="0"
     inkscape:window-y="34"
     inkscape:window-maximized="1"
     inkscape:current-layer="g3787" />
  <g
     transform="translate(20,20)"
     id="g3787">
    <path
       class="x axis"
       d="m 107.18933,284.94142 1.63962,0.0602 1.63962,0.0618 1.63962,0.0587 1.63961,0.0518 1.63962,0.0441 1.63962,0.0393 1.63962,0.0392 1.63962,0.0422 1.63961,0.0443 1.63962,0.0433 1.63962,0.039 1.63962,0.0333 1.63961,0.0275 1.63962,0.0214 1.63962,0.0139 1.63962,0.004 1.63962,-0.006 1.63961,-0.0177 1.63962,-0.0281 1.63962,-0.0351 1.63962,-0.0362 1.63961,-0.0311 1.63962,-0.0218 1.63962,-0.0121 1.63962,-0.005 1.63962,-0.003 1.63961,-0.004 1.63962,-0.005 1.63962,-0.004 1.63962,0.003 1.63962,0.016 1.63961,0.0388 1.63962,0.0695 1.63962,0.1027 1.63961,0.12835 1.63962,0.13626 1.63962,0.12166 1.63962,0.0885 1.63962,0.047 1.63961,0.007 1.63963,-0.0259 1.63961,-0.0551 1.63961,-0.085 1.63963,-0.11672 1.63961,-0.14419 1.63961,-0.15739 1.63964,-0.14885 1.63959,-0.11957 1.63963,-0.0796 1.63962,-0.0425 1.63962,-0.0189 1.63961,-0.0116 1.63962,-0.0156 1.63963,-0.022 1.63961,-0.0217 1.63962,-0.009 1.63961,0.0171 1.63961,0.0502 1.63963,0.0803 1.63962,0.0969 1.63962,0.0933 1.63962,0.0703 1.63961,0.0368 1.63961,0.005 1.63963,-0.0119 1.63962,-0.0122 1.63961,-2.2e-4 1.63962,0.0135 1.63962,0.019 1.63961,0.0128 1.63963,-0.002 1.6396,-0.0174 1.63963,-0.0246 1.63962,-0.0188 1.63961,-5.3e-4 1.63962,0.0244 1.63962,0.0469 1.63962,0.0577 1.63962,0.0511 1.63961,0.0275 1.63962,-0.006 1.63961,-0.0386 1.63963,-0.0601 1.63962,-0.0671 1.63961,-0.0629 1.63962,-0.0541 1.63962,-0.046 1.63961,-0.0392 1.63962,-0.0303 1.63963,-0.0147 1.63961,0.009 1.63961,0.0364 1.63963,0.0603 1.63961,0.0719 1.63962,0.0664 1.63963,0.0443 1.63961,0.0104 1.63961,-0.0263 1.63962,-0.0555 1.63961,-0.0655 1.63962,-0.0491 1.63962,-0.008 1.63963,0.0452 1.63961,0.0907 1.63962,0.11179 1.63961,0.10363 1.63962,0.0749 1.63963,0.0417 1.63961,0.0181 1.63961,0.009 1.63963,0.009 1.63961,0.0107 1.63961,0.007 1.63963,-0.003 1.63962,-0.0156 1.63961,-0.0282 1.63962,-0.0419 1.63962,-0.0589 1.63962,-0.0783 1.63962,-0.0939 1.63962,-0.0962 1.63961,-0.0794 1.63962,-0.0467 1.63961,-0.0106 1.63963,0.0136 1.63961,0.0169 1.63962,4.5e-4 1.63962,-0.0253 1.63962,-0.0481 1.63961,-0.0596 1.63961,-0.0585 1.63963,-0.0475 1.63962,-0.0307 1.63961,-0.0115 1.63962,0.008 1.63962,0.0251 1.63961,0.041 1.63963,0.0556 1.63962,0.0701 1.63961,0.0849 1.63962,0.0998 1.63961,0.11265 1.63962,0.12074 1.63962,0.12077 1.63963,0.11007 1.63961,0.088 1.63961,0.0572 1.63962,0.0233 1.63963,-0.007 1.63961,-0.0266 1.63962,-0.0349 1.63961,-0.0344 1.63962,-0.0303 1.63962,-0.0286 1.63961,-0.0325 1.63962,-0.0423 1.63963,-0.0568 1.63961,-0.0743 1.63961,-0.0933 1.63963,-0.10958 1.63961,-0.11764 1.63962,-0.11211 1.63963,-0.0913 1.63961,-0.0593 1.63961,-0.0244 1.63962,0.004 1.63962,0.0203 1.63962,0.0239 1.63962,0.0191 1.63962,0.0124 1.63961,0.009 1.63962,0.0108 1.63963,0.017 1.63961,0.0241 1.63962,0.0292 1.63961,0.0317 1.63962,0.0331 1.63962,0.0345 1.63962,0.0349 1.6396,0.0309 1.63963,0.0198 1.63962,0.002 1.63961,-0.018 1.63962,-0.0352 1.63962,-0.0457 1.63962,-0.0486 1.63962,-0.0471 1.63962,-0.0458 1.63961,-0.0495 1.63962,-0.0592 1.63961,-0.0716 1.63963,-0.0792 1.63961,-0.0756 1.63962,-0.0587 1.63962,-0.0326 1.63961,-0.004 1.63962,0.0208 1.63963,0.039 1.63961,0.0503"
       id="path3767"
       inkscape:connector-curvature="0"
       style="stroke-width:0.68762749" />
    <path
       class="y axis"
       d="m 98.779946,17.888809 -0.06221,1.310781 -0.05762,1.310781 -0.06699,1.310781 -0.09027,1.310782 -0.12045,1.310781 -0.144231,1.310781 -0.147434,1.310781 -0.122494,1.310782 -0.07334,1.310781 -0.01458,1.310781 0.03461,1.310781 0.05844,1.310782 0.05055,1.310781 0.01504,1.310781 -0.0369,1.310781 -0.09162,1.310782 -0.135649,1.310781 -0.157136,1.310781 -0.148426,1.310781 -0.110123,1.310782 -0.05301,1.310781 0.0054,1.310781 0.04892,1.310782 0.06989,1.310781 0.07201,1.310781 0.06678,1.310781 0.06596,1.310782 0.07379,1.310781 0.08333,1.310781 0.08052,1.310781 0.05457,1.310782 0.0078,1.310781 -0.04371,1.310781 -0.07986,1.310782 -0.08988,1.310781 -0.07813,1.310781 -0.05891,1.310781 -0.0455,1.310782 -0.04194,1.310781 -0.042,1.310781 -0.03365,1.310781 -0.0058,1.310782 0.04531,1.310781 0.112991,1.310781 0.180734,1.310782 0.227693,1.310781 0.235935,1.310781 0.196731,1.310781 0.114202,1.310782 0.0055,1.310781 -0.103361,1.310781 -0.186031,1.310781 -0.225379,1.310782 -0.219208,1.310781 -0.178997,1.310781 -0.122847,1.310782 -0.06733,1.310781 -0.02239,1.310781 0.0091,1.310781 0.02831,1.310782 0.03774,1.310781 0.03963,1.310781 0.03675,1.310783 0.03284,1.31078 0.03194,1.31078 0.0372,1.31078 0.05025,1.31078 0.0707,1.31079 0.09512,1.31078 0.115936,1.31078 0.122759,1.31078 0.107089,1.31078 0.06796,1.31078 0.0143,1.31078 -0.0381,1.31078 -0.07317,1.31079 -0.08097,1.31078 -0.06099,1.31078 -0.02143,1.31078 0.02492,1.31078 0.06601,1.31078 0.09399,1.31078 0.105078,1.31079 0.09698,1.31078 0.06743,1.31078 0.01603,1.31078 -0.05197,1.31078 -0.124236,1.31078 -0.184281,1.31078 -0.217066,1.31078 -0.213268,1.31079 -0.170696,1.31078 -0.09472,1.31078 7.89e-4,1.31078 0.0938,1.31078 0.159927,1.31078 0.183338,1.31078 0.165581,1.31078 0.123851,1.31079 0.078,1.31078 0.03623,1.31078 -0.008,1.31078 -0.06487,1.31078 -0.132601,1.31078 -0.19151,1.31078 -0.213811,1.31079 -0.181805,1.31078 -0.100511,1.31078 0.0038,1.31078 0.09697,1.31078 0.152136,1.31078 0.158642,1.31078 0.122018,1.31078 0.05852,1.31079 -0.01158,1.31078 -0.06986,1.31078 -0.104148,1.31078 -0.111466,1.31078 -0.09821,1.31078 -0.07669,1.31078 -0.05888,1.31078 -0.05012,1.31079 -0.04663,1.31078 -0.03897,1.31078 -0.02005,1.31078 0.0074,1.31078 0.03015,1.31078 0.03288,1.31078 0.0098,1.31078 -0.02941,1.31079 -0.06409,1.31078 -0.07552,1.31078 -0.05729,1.31078 -0.01706,1.31078 0.03003,1.31078 0.06987,1.31078 0.0941,1.31078 0.100257,1.31079 0.09083,1.31078 0.07312,1.31078 0.05841,1.31078 0.05768,1.31078 0.07488,1.31078 0.102447,1.31078 0.123833,1.31078 0.122089,1.31079 0.08947,1.31078 0.03243,1.31078 -0.03056,1.31078 -0.07721,1.31078 -0.09178,1.31078 -0.07269,1.31078 -0.03295,1.31078 0.0072,1.31079 0.03095,1.31078 0.03199,1.31078 0.01492,1.31078 -0.0098,1.31078 -0.03153,1.31078 -0.04376,1.31078 -0.04607,1.31079 -0.04405,1.31078 -0.04624,1.31078 -0.05833,1.31078 -0.07775,1.31078 -0.09302,1.31078 -0.08926,1.31078 -0.05682,1.31078 0.0024,1.31079 0.07495,1.31078 0.14087,1.31078 0.180706,1.31078 0.181676,1.31078 0.142434,1.31078 0.07544,1.31078 0.0046,1.31078 -0.04287,1.31079 -0.04839,1.31078 -0.01078,1.31078 0.05215,1.31078 0.110521,1.31078 0.134568,1.31078 0.10719,1.31078 0.032,1.31078 -0.06716,1.31079 -0.155998,1.31078 -0.204702,1.31078 -0.200612,1.31078 -0.152369,1.31078 -0.08412,1.31078 -0.02322,1.31078 0.01247,1.31078 0.0215,1.31079 0.01588,1.31078 0.01102,1.31078 0.01619,1.31078 0.03163,1.31078 0.05198,1.31078 0.07111,1.31078"
       id="path3769"
       inkscape:connector-curvature="0"
       style="stroke-width:0.85242617" />
    <path
       class="x axis arrow"
       d="m 434.47095,289.87523 2.44343,-1.0848 2.42053,-1.09967 2.39829,-1.11414 2.38133,-1.12517 -0.13321,-0.0318 -2.63641,-0.9593 -2.62255,-0.96831 -2.60237,-0.98144 -2.57998,-0.996"
       id="path3771"
       inkscape:connector-curvature="0"
       style="stroke-width:0.85242617" />
    <path
       class="x axis arrow"
       d="m 112.59303,289.31247 -2.47739,-1.0627 -2.47468,-1.06448 -2.47829,-1.06212 -2.48801,-1.05579 0.006,0.65357 2.50086,-1.04744 2.49312,-1.05248 2.49142,-1.05358 2.49517,-1.05115"
       id="path3773"
       inkscape:connector-curvature="0"
       style="stroke-width:0.85242617" />
    <path
       class="y axis arrow"
       d="m 101.77585,23.109853 -0.60379,-1.487347 -0.60434,-1.48729 -0.59861,-1.487887 -0.588469,-1.488941 -0.581568,-1.48966 -0.589756,-1.488808 -0.622204,-1.485432 0.538323,0.01083 -0.406135,1.507913 -0.355111,1.51322 -0.329353,1.515901 -0.330381,1.515794 -0.350501,1.513701 -0.379381,1.510695 -0.408961,1.507618"
       id="path3775"
       inkscape:connector-curvature="0"
       style="stroke-width:0.85242617" />
    <path
       class="y axis arrow"
       d="m 102.12995,273.55008 -0.68995,1.47838 -0.70743,1.47657 -0.70998,1.4763 -0.692387,1.47813 -0.654563,1.48206 -0.604175,1.48731 -0.555482,1.49237 0.526996,0.005 -0.629136,-1.48471 -0.612005,-1.48649 -0.58065,-1.48976 -0.54641,-1.49331 -0.517422,-1.49634 -0.49704,-1.49845 -0.485011,-1.49971"
       id="path3777"
       inkscape:connector-curvature="0"
       style="stroke-width:0.85242617" />
    <path
       d="M 33.333333,283.391 38.666667,280.70672 44,278.02244 49.333333,275.33816 54.666667,272.65387 60,269.96959 65.333333,267.28531 70.666667,264.60103 76,261.91675 81.333333,259.23246 86.666667,256.54818 92,253.8639 l 5.333333,-2.68428 5.333337,-2.68429 5.33333,-2.68428 5.33333,-2.68428 5.33334,-2.68428 5.33333,-2.68429 5.33333,-2.68428 5.33334,-2.68428 5.33333,-2.68428 5.33333,-2.68428 5.33334,-2.68429 5.33333,-2.68428 5.33333,-2.68428 5.33334,-2.68428 5.33333,-2.68429 5.33333,-2.68428 5.33334,-2.68428 5.33333,-2.68428 5.33333,-2.68428 5.33334,-2.68429 5.33333,-2.68428 5.33333,-2.68428 5.33334,-2.68428 5.33333,-2.68429 5.33333,-2.68428 5.33334,-2.68428 5.33333,-2.68428 5.33333,-2.68429 5.33334,-2.68428 5.33333,-2.68428 5.33333,-2.68428 5.33334,-2.68428 5.33333,-2.68429 5.33333,-2.68428 5.33334,-2.68428 5.33333,-2.68428 5.33333,-2.68429 5.33334,-2.68428 5.33333,-2.68428 5.33333,-2.68428 5.33334,-2.68428 5.33333,-2.68429 5.33333,-2.68428 5.33334,-2.68428 5.33333,-2.68428 5.33333,-2.68429 5.33334,-2.68428 5.33333,-2.68428 5.33333,-2.68428 5.33334,-2.68428 5.33333,-2.68429 5.33333,-2.68428 5.33334,-2.68428 5.33333,-2.68428 5.33333,-2.68429 5.33334,-2.68428 5.33333,-2.68428 5.33333,-2.684283 5.33334,-2.684282 L 412,92.806962 417.33333,90.12268 422.66667,87.438398 428,84.754116 433.33333,82.069833 438.66667,79.385551 444,76.701269 449.33333,74.016986 454.66667,71.332704 460,68.648422 465.33333,65.96414 470.66667,63.279857 476,60.595575 481.33333,57.911293 486.66667,55.227011 492,52.542728 497.33333,49.858446 502.66667,47.174164 508,44.489882 513.33333,41.805599 518.66667,39.121317 524,36.437035 529.33333,33.752752 534.66667,31.06847 540,28.384188 l 5.33333,-2.684282 5.33334,-2.684283 5.33333,-2.684282 5.33333,-2.684282"
       style="fill:none;stroke:#ffffff;stroke-width:6px"
       class="bgline"
       id="path3779"
       inkscape:connector-curvature="0" />
    <path
       d="m 117.4541,180.6438 1.67988,-0.7905 1.67807,-0.79136 0.0117,0.006 1.66716,-0.79655 1.66313,-0.79844 0.003,8.2e-4 1.67477,-0.79293 1.6916,-0.78491 0.05,0.0237 1.73101,-0.76623 1.74505,-0.75956 0.0897,0.0425 1.75016,-0.75714 1.74276,-0.76066 0.0719,0.0342 1.72897,-0.76721 1.73139,-0.76604 0.0771,0.0366 1.74398,-0.76008 1.7358,-0.76396 0.0456,0.0216 1.65961,-0.80013 1.60117,-0.82784 -0.11635,-0.0552 1.50555,-0.87322 1.48927,-0.88094 -0.16397,-0.0777 1.52559,-0.86372 1.56194,-0.84646 -0.0664,-0.0315 1.61805,-0.81984 1.62863,-0.81481 -0.0295,-0.014 1.63685,-0.81092 1.6469,-0.80614 5e-5,2e-5 1.67686,-0.79193 1.68622,-0.78748 0.0248,0.0117 1.67792,-0.79143 1.66157,-0.79918 -0.0218,-0.0104 1.61614,-0.82074 1.59292,-0.83176 -0.0877,-0.0416 1.56539,-0.84483 1.57292,-0.84126 -0.0597,-0.0283 1.65286,-0.80333 1.71636,-0.77319 0.11435,0.0542 1.81469,-0.72653 1.8218,-0.72315 0.13832,0.0656 1.76341,-0.75084 1.72842,-0.76747 0.0439,0.0209 1.69576,-0.78296 1.69125,-0.78509 0.0235,0.0111 1.67677,-0.79196 1.67011,-0.79514 0.008,0.004 1.67762,-0.79156 1.6883,-0.7865 0.0349,0.0166 1.70032,-0.78078 1.69992,-0.781 0.0362,0.0172 1.69646,-0.78262 1.69323,-0.78416 0.0226,0.0107 1.66622,-0.79698 1.63903,-0.80989 -0.0528,-0.025 1.5868,-0.83466 1.58234,-0.83679 -0.063,-0.0299 1.63002,-0.81415 1.66288,-0.79855 0.022,0.0104 1.6858,-0.78771 1.6707,-0.79484 -0.0134,-0.007 1.63092,-0.81373 1.62818,-0.81503 -0.0184,-0.008 1.67277,-0.79386 1.70642,-0.7779 0.0706,0.0334 1.74119,-0.76141 1.72926,-0.76707 0.0381,0.018 1.66098,-0.79946 1.6206,-0.81862 -0.0768,-0.0365 1.55863,-0.84804 1.54428,-0.85484 -0.11719,-0.0556 1.56101,-0.84691 1.59101,-0.83266 -0.033,-0.0157 1.66617,-0.79701 1.69623,-0.78274 0.0542,0.0257 1.72675,-0.76827 1.73073,-0.76636 0.0669,0.0317 1.71885,-0.77202 1.69953,-0.78117 0.0101,0.005 1.64206,-0.80843 1.61671,-0.82047 -0.0593,-0.0281 1.60239,-0.82726 1.61507,-0.82125 -0.0263,-0.0125 1.65677,-0.80147 1.6726,-0.79394 0.0178,0.008 1.6785,-0.79116 1.67287,-0.79382 0.005,0.003 1.66566,-0.79724 1.66852,-0.79588 0.0134,0.007 1.68399,-0.78853 1.69132,-0.78507 0.0318,0.0152 1.68941,-0.78599 1.67893,-0.79095 0.005,0.002 1.65551,-0.80205 1.64826,-0.80551 -0.0183,-0.008 1.64041,-0.80922 1.64059,-0.80914 -0.0151,-0.008 1.65949,-0.80017 1.67362,-0.79347 0.0194,0.009 1.67719,-0.79179 1.66301,-0.79849 -0.0134,-0.007 1.64593,-0.80661 1.66381,-0.79811 0.0379,0.0181 1.74042,-0.76178 1.76509,-0.75005 0.0951,0.0452 1.7117,-0.7754 1.64186,-0.808532 -0.09,-0.04279 1.52619,-0.863423 1.51871,-0.86698 -0.11467,-0.05445 1.59721,-0.829721 1.6515,-0.803958 0.0352,0.01667 1.728,-0.767668 1.74356,-0.760277 0.0832,0.03942 1.73382,-0.764893 1.71257,-0.774994 0.0228,0.01084 1.65452,-0.802538 1.6261,-0.816013 -0.0587,-0.02784 1.58916,-0.833539 1.5864,-0.834862 -0.0664,-0.03154 1.61399,-0.821754 1.63793,-0.810405 0.001,5.99e-4 1.68721,-0.787024 1.70867,-0.776834 0.0627,0.02973 1.72944,-0.766986 1.71784,-0.772473 0.0268,0.01273 1.64895,-0.805174 1.6116,-0.822887 -0.0713,-0.03383 1.59292,-0.831765 1.61455,-0.821492 -0.0199,-0.0094 1.65956,-0.800139 1.65866,-0.800567 -0.0195,-0.0093 1.6229,-0.817542 1.61339,-0.822051 -0.0417,-0.01979 1.64006,-0.809396 1.66523,-0.797445 0.027,0.01273 1.70825,-0.777039 1.72432,-0.769401 0.0753,0.03564 1.74388,-0.760122 1.74109,-0.761451 0.0652,0.03087 1.70421,-0.778952 1.67968,-0.790597 -1.2e-4,-5e-5 1.65645,-0.801617 1.66454,-0.797783 0.0188,0.009 1.69594,-0.782869 1.70158,-0.780193 0.0317,0.01503 1.67422,-0.793176 1.65089,-0.804254 -0.03,-0.01429 1.62231,-0.817813 1.62258,-0.817697 -0.0342,-0.01626 1.63046,-0.813945 1.62626,-0.815939 -0.0453,-0.02143 1.6092,-0.82403 1.61208,-0.822674 -0.0344,-0.01626 1.64958,-0.804862 1.66773,-0.796263 0.0134,0.0058 1.6686,-0.795853 1.65685,-0.801429 -0.0151,-0.0074 1.64523,-0.806947 1.6533,-0.803097 0.008,0.0041 1.69165,-0.784907 1.71336,-0.774616 0.0669,0.03178 1.7317,-0.765911 1.71719,-0.772785 0.0236,0.01125 1.64383,-0.807605 1.60476,-0.82614 -0.0795,-0.03769 1.58556,-0.835247 1.61255,-0.822445 -0.0101,-0.0049 1.68657,-0.78732 1.70564,-0.778279 0.0444,0.02102 1.69415,-0.783723 1.67835,-0.791221 0.003,0.0016 1.65647,-0.801603 1.65061,-0.804384 -0.0168,-0.0074 1.64132,-0.808796 1.63953,-0.809642 -0.0191,-0.0091 1.65118,-0.804117 1.66183,-0.799063 0.008,0.0037 1.67117,-0.794635 1.66791,-0.79617 0.005,0.0019 1.67165,-0.794404 1.6879,-0.78669 0.0483,0.02285 1.72735,-0.767977 1.72857,-0.767387 0.0466,0.02214 1.67187,-0.794293 1.63133,-0.813531 -0.0609,-0.02892 1.58925,-0.833497 1.59723,-0.829724 -0.0421,-0.01995 1.6501,-0.804629 1.68144,-0.789755 0.0464,0.022 1.72591,-0.768662 1.73135,-0.766069 0.0622,0.02952 1.70634,-0.777936 1.68322,-0.788916 -0.001,-5.55e-4 1.64349,-0.807769 1.63247,-0.81299 -0.0376,-0.01779 1.61409,-0.821712 1.59948,-0.828654 -0.0778,-0.03688 1.57637,-0.839619 1.58351,-0.836225 -0.055,-0.02609 1.64082,-0.809028 1.67636,-0.792167 0.0443,0.02099 1.72651,-0.768367 1.73764,-0.763092"
       style="fill:none;stroke:#4682b4;stroke-width:1.82734764px"
       id="path3781"
       inkscape:connector-curvature="0" />
    <text
       class="x label"
       x="434.49423"
       y="296.2829"
       id="text3783"
       dy="7.6718354"
       style="font-size:26.66666603px;text-anchor:end;stroke-width:0.85242617"
       transform="scale(0.98038062,1.020012)">
      <tspan
         style="font-style:normal;font-variant:normal;font-weight:normal;font-stretch:normal;font-family:'xkcd Script';-inkscape-font-specification:'xkcd Script'"
         id="tspan26">Features</tspan>
    </text>
    <text
       class="y label"
       x="-27.02528"
       y="91.161827"
       transform="matrix(0,-1.020012,0.98038062,0,0,0)"
       id="text3785"
       dy="-7.6718354"
       style="font-size:24px;text-anchor:end;stroke-width:0.85242617">
      <tspan
         style="font-style:normal;font-variant:normal;font-weight:normal;font-stretch:normal;font-family:'xkcd Script';-inkscape-font-specification:'xkcd Script'"
         id="tspan3827">Work required</tspan>
    </text>
    <path
       class="x axis"
       d="m 135.40905,236.07918 0.18709,0.0873 0.18709,0.0896 0.18709,0.0851 0.18709,0.0751 0.18709,0.064 0.18709,0.057 0.18709,0.0569 0.18709,0.0612 0.18709,0.0643 0.18709,0.0628 0.18709,0.0566 0.18709,0.0483 0.18709,0.0399 0.18709,0.031 0.18709,0.0202 0.18709,0.006 0.18709,-0.009 0.18709,-0.0257 0.18709,-0.0408 0.18709,-0.0509 0.18709,-0.0525 0.18709,-0.0451 0.18709,-0.0316 0.18709,-0.0175 0.18709,-0.007 0.18709,-0.004 0.18709,-0.006 0.18709,-0.007 0.18709,-0.006 0.18709,0.004 0.18709,0.0232 0.18709,0.0563 0.18709,0.10081 0.18709,0.14897 0.18709,0.18618 0.18709,0.19765 0.1871,0.17648 0.18709,0.12837 0.18709,0.0682 0.18709,0.0102 0.18709,-0.0376 0.18709,-0.0799 0.18709,-0.1233 0.18709,-0.16931 0.18709,-0.20916 0.18709,-0.2283 0.18709,-0.21591 0.18709,-0.17345 0.18709,-0.11546 0.18709,-0.0617 0.18709,-0.0274 0.18709,-0.0168 0.18709,-0.0226 0.18709,-0.0319 0.18709,-0.0315 0.18709,-0.013 0.18709,0.0248 0.18709,0.0728 0.18709,0.11648 0.18709,0.14056 0.18709,0.13533 0.18709,0.10198 0.18709,0.0534 0.18709,0.007 0.18709,-0.0173 0.18709,-0.0177 0.18709,-3.2e-4 0.18709,0.0196 0.18709,0.0276 0.18709,0.0186 0.18709,-0.003 0.18709,-0.0252 0.18709,-0.0357 0.18709,-0.0273 0.18709,-7.7e-4 0.18709,0.0354 0.18709,0.068 0.18709,0.0837 0.18709,0.0741 0.18709,0.0399 0.18709,-0.009 0.18709,-0.056 0.18709,-0.0872 0.18709,-0.0973 0.18709,-0.0912 0.18709,-0.0785 0.18709,-0.0667 0.18709,-0.0569 0.18709,-0.0439 0.18709,-0.0213 0.18709,0.0131 0.18709,0.0528 0.18709,0.0875 0.18709,0.10429 0.18709,0.0963 0.18709,0.0643 0.18709,0.0151 0.18709,-0.0382 0.18709,-0.0805 0.18709,-0.095 0.18709,-0.0712 0.18709,-0.0116 0.18709,0.0656 0.18709,0.13157 0.18709,0.16216 0.18709,0.15032 0.18709,0.10864 0.18709,0.0605 0.1871,0.0263 0.18709,0.0131 0.18709,0.0131 0.18709,0.0155 0.18709,0.0102 0.18709,-0.004 0.18709,-0.0226 0.18709,-0.0409 0.18709,-0.0608 0.18709,-0.0854 0.18709,-0.11358 0.18709,-0.1362 0.18709,-0.13955 0.18709,-0.11517 0.18709,-0.0677 0.18709,-0.0154 0.18709,0.0197 0.18709,0.0245 0.18709,6.6e-4 0.18709,-0.0367 0.18709,-0.0698 0.18709,-0.0865 0.18709,-0.0849 0.18709,-0.0689 0.18709,-0.0445 0.18709,-0.0167 0.18709,0.0116 0.18709,0.0364 0.18709,0.0595 0.18709,0.0806 0.18709,0.10168 0.18709,0.12315 0.18709,0.14477 0.18709,0.1634 0.18709,0.17514 0.18709,0.17519 0.18709,0.15966 0.18709,0.12765 0.18709,0.083 0.18709,0.0338 0.18709,-0.0102 0.18709,-0.0386 0.18709,-0.0506 0.18709,-0.0499 0.18709,-0.044 0.18709,-0.0415 0.18709,-0.0472 0.18709,-0.0613 0.18709,-0.0824 0.18709,-0.10777 0.18709,-0.13534 0.18709,-0.15895 0.18709,-0.17064 0.18709,-0.16262 0.18709,-0.13244 0.18709,-0.086 0.18709,-0.0354 0.18709,0.006 0.18709,0.0294 0.18709,0.0347 0.18709,0.0277 0.18709,0.018 0.18709,0.013 0.18709,0.0157 0.18709,0.0247 0.18709,0.035 0.18709,0.0423 0.18709,0.046 0.18709,0.048 0.18709,0.05 0.18709,0.0506 0.18709,0.0448 0.1871,0.0287 0.18709,0.003 0.18709,-0.0261 0.18709,-0.0511 0.18709,-0.0663 0.18709,-0.0705 0.18709,-0.0683 0.18709,-0.0664 0.18709,-0.0718 0.18709,-0.0859 0.18709,-0.10386 0.18709,-0.11488 0.18709,-0.10966 0.18709,-0.0851 0.18709,-0.0473 0.18709,-0.006 0.18709,0.0302 0.18709,0.0566 0.18709,0.073"
       id="path3767-7"
       inkscape:connector-curvature="0"
       style="stroke-width:0.27968782" />
    <path
       class="x axis arrow"
       d="m 140.81275,240.37682 -2.47739,-1.0627 -2.47468,-1.06448 -2.47829,-1.06212 -2.48801,-1.05579 0.006,0.65357 2.50086,-1.04744 2.49312,-1.05248 2.49142,-1.05358 2.49517,-1.05115"
       id="path3773-5"
       inkscape:connector-curvature="0"
       style="stroke-width:0.85242617" />
    <text
       class="x label"
       x="226.1738"
       y="257.16327"
       id="text3783-8"
       style="font-size:26.66666603px;line-height:2.25;text-anchor:end;stroke-width:0.85242617"
       transform="scale(0.98038062,1.020012)">
      <tspan
         style="font-style:normal;font-variant:normal;font-weight:normal;font-stretch:normal;font-family:'xkcd Script';-inkscape-font-specification:'xkcd Script'"
         id="tspan26-4">y=mx+<tspan
   style="fill:#ff0000"
   id="tspan73" />
</tspan>
    </text>
    <text
       xml:space="preserve"
       style="font-style:normal;font-variant:normal;font-weight:normal;font-stretch:normal;font-size:53.33333206px;line-height:1.25;font-family:xkcd;-inkscape-font-specification:xkcd;letter-spacing:0px;word-spacing:0px;fill:#000000;fill-opacity:1;stroke:none"
       x="219.07735"
       y="270.61877"
       id="text77"><tspan
         sodipodi:role="line"
         id="tspan75"
         x="219.07735"
         y="270.61877"
         style="fill:#d40000">c</tspan></text>
    <flowRoot
       xml:space="preserve"
       id="flowRoot79"
       style="fill:black;fill-opacity:1;stroke:none;font-family:xkcd;font-style:normal;font-weight:normal;font-size:40px;line-height:1.25;letter-spacing:0px;word-spacing:0px;-inkscape-font-specification:xkcd;font-stretch:normal;font-variant:normal"><flowRegion
         id="flowRegion81"><rect
           id="rect83"
           width="30.110497"
           height="40.348064"
           x="383.00552"
           y="223.17128" /></flowRegion><flowPara
         id="flowPara85"></flowPara></flowRoot>  </g>
</svg>
